# File created by Blade
# Date/Time:  Fri Jan 16 17:52:57 2015
#---------------------------------------------------------
:version 1.10
:name HOM
:units
  mass 1.0
  length 1.000000
  angle deg
:documentation
     Acclaim Skeleton File
:root
   axis xyz
   order TX TY TZ RX RY RZ
   position 0.000000 0.000000 0.000000
   orientation 0 0 0
:bonedata
   begin
      id 1
      name Spine_dum
      direction 0.000000 1.000000 0.000000
      length 7.170412
      axis 0.0 0.0 0.0 xyz
   end
   begin
      id 2
      name LeftUpLeg_dum
      direction 1.000000 0.000000 0.000000
      length 4.318350
      axis 0.0 0.0 0.0 xyz
   end
   begin
      id 3
      name RightUpLeg_dum
      direction -1.000000 0.000000 0.000000
      length 4.318350
      axis 0.0 0.0 0.0 xyz
   end
   begin
      id 4
      name Spine
      direction 0.000000 1.000000 0.000000
      length 0.000000
      axis 0.0 0.0 0.0 xyz
      dof rx ry rz
   end
   begin
      id 5
      name Spine_dum1
      direction 0.000000 1.000000 0.000000
      length 14.276153
      axis 0.0 0.0 0.0 xyz
   end
   begin
      id 6
      name Spine_dum2
      direction 0.000000 1.000000 0.000000
      length 10.718243
      axis 0.0 0.0 0.0 xyz
   end
   begin
      id 7
      name Spine_dum3
      direction 0.000000 1.000000 0.000000
      length 10.718243
      axis 0.0 0.0 0.0 xyz
   end
   begin
      id 8
      name Head
      direction 0.000000 1.000000 0.000000
      length 4.527550
      axis 0.0 0.0 0.0 xyz
      dof rx ry rz
   end
   begin
      id 9
      name LeftShoulder
      direction 1.000000 0.000000 0.000000
      length 7.058872
      axis 0.0 0.0 -90.0 xyz
      dof rx ry rz
   end
   begin
      id 10
      name LeftArm
      direction 1.000000 0.000000 0.000000
      length 10.955525
      axis 0.0 0.0 -90.0 xyz
      dof rx ry rz
   end
   begin
      id 11
      name LeftForeArm
      direction 1.000000 0.000000 0.000000
      length 8.193716
      axis 0.0 0.0 -90.0 xyz
      dof ry rz rx
   end
   begin
      id 12
      name LeftHand
      direction 0.000000 0.000000 0.000000
      length 0.000000
      axis 0.0 0.0 -90.0 xyz
      dof rx ry rz
   end
   begin
      id 13
      name LeftHand_dum1
      direction 0.000000 0.000000 0.000000
      length 0.000000
      axis 0.0 0.0 -90.0 xyz
   end
   begin
      id 14
      name LeftHand_dum2
      direction 1.000000 0.000000 0.000000
      length 3.937000
      axis 0.0 0.0 -90.0 xyz
   end
   begin
      id 15
      name LeftHandThumb1
      direction 0.000000 0.000000 1.000000
      length 3.937000
      axis 0.0 0.0 -90.0 xyz
      dof rx rz ry
   end
   begin
      id 16
      name RightShoulder
      direction -1.000000 0.000000 0.000000
      length 7.058872
      axis 0.0 0.0 90.0 xyz
      dof rx ry rz
   end
   begin
      id 17
      name RightArm
      direction -1.000000 0.000000 0.000000
      length 10.955525
      axis 0.0 0.0 90.0 xyz
      dof rx ry rz
   end
   begin
      id 18
      name RightForeArm
      direction -1.000000 0.000000 0.000000
      length 8.193716
      axis 0.0 0.0 90.0 xyz
      dof ry rz rx
   end
   begin
      id 19
      name RightHand
      direction 0.000000 0.000000 0.000000
      length 0.000000
      axis 0.0 0.0 90.0 xyz
      dof rx ry rz
   end
   begin
      id 20
      name RightHand_dum1
      direction 0.000000 0.000000 0.000000
      length 0.000000
      axis 0.0 0.0 90.0 xyz
   end
   begin
      id 21
      name RightHand_dum2
      direction -1.000000 0.000000 0.000000
      length 3.937000
      axis 0.0 0.0 90.0 xyz
   end
   begin
      id 22
      name RightHandThumb1
      direction 0.000000 0.000000 1.000000
      length 3.937000
      axis 0.0 0.0 90.0 xyz
      dof rx rz ry
   end
   begin
      id 23
      name LeftUpLeg
      direction 0.000000 -1.000000 0.000000
      length 17.323638
      axis 0.0 0.0 0.0 xyz
      dof rx ry rz
   end
   begin
      id 24
      name LeftLeg
      direction 0.000000 -1.000000 0.000000
      length 16.270368
      axis 0.0 0.0 0.0 xyz
      dof rx ry rz
   end
   begin
      id 25
      name LeftFoot
      direction 0.000000 -0.258819 0.965926
      length 4.922846
      axis 15.0 0.0 0.0 xyz
      dof rx ry rz
   end
   begin
      id 26
      name LeftToeBase
      direction 0.000000 0.000000 1.000000
      length 2.952750
      axis 0.0 0.0 0.0 xyz
      dof rx ry rz
   end
   begin
      id 27
      name RightUpLeg
      direction 0.000000 -1.000000 0.000000
      length 17.323638
      axis 0.0 0.0 0.0 xyz
      dof rx ry rz
   end
   begin
      id 28
      name RightLeg
      direction 0.000000 -1.000000 0.000000
      length 16.270368
      axis 0.0 0.0 0.0 xyz
      dof rx ry rz
   end
   begin
      id 29
      name RightFoot
      direction 0.000000 -0.258819 0.965926
      length 4.922846
      axis 15.0 0.0 0.0 xyz
      dof rx ry rz
   end
   begin
      id 30
      name RightToeBase
      direction 0.000000 0.000000 1.000000
      length 2.952750
      axis 0.0 0.0 0.0 xyz
      dof rx ry rz
   end
:hierarchy
   begin
      root Spine_dum LeftUpLeg_dum RightUpLeg_dum
      Spine_dum Spine
      LeftUpLeg_dum LeftUpLeg
      RightUpLeg_dum RightUpLeg
      Spine Spine_dum1 Spine_dum2 Spine_dum3
      Spine_dum1 Head
      Spine_dum2 LeftShoulder
      Spine_dum3 RightShoulder
      LeftShoulder LeftArm
      LeftArm LeftForeArm
      LeftForeArm LeftHand
      LeftHand LeftHand_dum1 LeftHand_dum2
      LeftHand_dum1 LeftHandThumb1
      RightShoulder RightArm
      RightArm RightForeArm
      RightForeArm RightHand
      RightHand RightHand_dum1 RightHand_dum2
      RightHand_dum1 RightHandThumb1
      LeftUpLeg LeftLeg
      LeftLeg LeftFoot
      LeftFoot LeftToeBase
      RightUpLeg RightLeg
      RightLeg RightFoot
      RightFoot RightToeBase
   end

# File created by Blade
# Date/Time:  Fri Jan 16 17:53:05 2015
# Frame Rate: 120.000 fps
#------------------------------------------------------
:FULLY-SPECIFIED
:DEGREES
1014
root -3.723002 35.341955 -11.481890 -1.677175 3.338513 -9.068724
Spine -0.354220 -9.628291 12.287087
Head 3.946741 3.745903 -4.894446
LeftShoulder -24.013904 16.571192 -10.045271
LeftArm 21.458104 -26.901155 -68.739587
LeftForeArm 0.035045 -0.000000 127.232565
LeftHand 2.701139 -0.000000 15.678841
LeftHandThumb1 -26.253704 0.000000 33.147579
RightShoulder -5.983289 -8.019993 -2.436415
RightArm -1.343356 -19.338132 73.399418
RightForeArm -14.773338 0.000000 21.987178
RightHand -1.375219 0.000000 -17.132352
RightHandThumb1 -24.326973 -0.000000 -32.862282
LeftUpLeg 9.340660 -1.554695 -1.539571
LeftLeg -8.521220 -0.000000 0.000000
LeftFoot -14.026527 31.664467 -2.828218
LeftToeBase 20.395711 -0.000000 -0.000000
RightUpLeg -3.751219 27.535788 5.681101
RightLeg 127.210268 -0.000000 -0.000000
RightFoot -25.611322 -31.942086 15.779688
RightToeBase -0.120966 -0.000000 0.000000
1015
root -3.717040 35.340523 -11.467997 -1.760237 3.331849 -9.057910
Spine -0.267186 -9.611697 12.244952
Head 3.989896 3.731145 -4.868512
LeftShoulder -23.999846 16.584876 -10.011227
LeftArm 21.498615 -26.889337 -68.734084
LeftForeArm -0.006403 -0.000000 127.177765
LeftHand 2.741958 -0.000000 15.624506
LeftHandThumb1 -26.253704 0.000000 33.147579
RightShoulder -5.969349 -8.001240 -2.418819
RightArm -1.274996 -19.339591 73.316683
RightForeArm -14.805464 -0.000000 21.981424
RightHand -1.335784 0.000000 -17.072029
RightHandThumb1 -24.326973 -0.000000 -32.862282
LeftUpLeg 9.457558 -1.490952 -1.557864
LeftLeg -8.540069 -0.000000 0.000000
LeftFoot -14.046897 31.621225 -2.856240
LeftToeBase 20.378680 -0.000000 -0.000000
RightUpLeg -3.652772 27.886233 5.684436
RightLeg 125.891529 -0.000000 -0.000000
RightFoot -25.909237 -32.100931 15.780423
RightToeBase 0.099772 -0.000000 -0.000000
1016
root -3.712692 35.339141 -11.453424 -1.836178 3.320612 -9.056017
Spine -0.196466 -9.591697 12.201003
Head 4.052695 3.710744 -4.807723
LeftShoulder -23.992758 16.599385 -9.955362
LeftArm 21.529007 -26.861479 -68.744319
LeftForeArm -0.002968 -0.000000 127.131441
LeftHand 2.768494 -0.000000 15.555731
LeftHandThumb1 -26.253704 0.000000 33.147579
RightShoulder -5.986465 -8.081815 -2.391217
RightArm -1.073090 -19.367845 73.203751
RightForeArm -14.721980 -0.000000 21.956279
RightHand -1.615029 -0.000000 -16.073124
RightHandThumb1 -24.326973 -0.000000 -32.862282
LeftUpLeg 9.571333 -1.440761 -1.565264
LeftLeg -8.565308 -0.000000 0.000000
LeftFoot -14.070492 31.592208 -2.881129
LeftToeBase 20.366446 -0.000000 -0.000000
RightUpLeg -3.559979 28.193625 5.707469
RightLeg 124.555101 -0.000000 -0.000000
RightFoot -26.369159 -31.929155 16.103541
RightToeBase 0.179141 -0.000000 -0.000000
1017
root -3.709766 35.337633 -11.439547 -1.910258 3.308036 -9.056960
Spine -0.131746 -9.565698 12.166860
Head 4.132947 3.692708 -4.773603
LeftShoulder -23.989876 16.639315 -9.934685
LeftArm 21.600004 -26.865970 -68.711087
LeftForeArm -0.115429 -0.000000 127.043217
LeftHand 2.956293 0.000000 15.416509
LeftHandThumb1 -26.253704 0.000000 33.147579
RightShoulder -5.983579 -8.079414 -2.370218
RightArm -0.982575 -19.258372 73.138276
RightForeArm -14.703759 -0.000000 21.917522
RightHand -1.646603 -0.000000 -15.449390
RightHandThumb1 -24.326973 -0.000000 -32.862282
LeftUpLeg 9.675832 -1.381253 -1.568945
LeftLeg -8.576560 -0.000000 0.000000
LeftFoot -14.087113 31.560990 -2.879445
LeftToeBase 20.416270 -0.000000 -0.000000
RightUpLeg -3.474044 28.489460 5.760698
RightLeg 123.191715 -0.000000 -0.000000
RightFoot -26.703511 -31.857225 16.225306
RightToeBase 0.416746 -0.000000 -0.000000
1018
root -3.707539 35.336787 -11.426994 -1.972146 3.308713 -9.057786
Spine -0.091101 -9.544147 12.134265
Head 4.228956 3.666533 -4.736892
LeftShoulder -23.971869 16.679697 -9.897783
LeftArm 21.658737 -26.839085 -68.700927
LeftForeArm -0.078081 -0.000000 126.975801
LeftHand 3.050178 0.000000 15.350692
LeftHandThumb1 -26.253704 0.000000 33.147579
RightShoulder -5.966613 -8.110469 -2.325685
RightArm -0.891524 -19.014179 73.059170
RightForeArm -14.980921 -0.000000 21.922547
RightHand -1.884514 -0.000000 -14.580319
RightHandThumb1 -24.326973 -0.000000 -32.862282
LeftUpLeg 9.754863 -1.352718 -1.572800
LeftLeg -8.570422 -0.000000 0.000000
LeftFoot -14.117945 31.555701 -2.893009
LeftToeBase 20.394137 -0.000000 -0.000000
RightUpLeg -3.392087 28.779311 5.816403
RightLeg 121.755232 -0.000000 -0.000000
RightFoot -27.000528 -31.871684 16.330489
RightToeBase 0.487139 -0.000000 -0.000000
